<mxfile host="65bd71144e">
    <diagram id="qYfWdHUspcd1cQ6Nx6c1" name="Страница 1">
        <mxGraphModel dx="777" dy="504" grid="1" gridSize="10" guides="1" tooltips="1" connect="1" arrows="1" fold="1" page="1" pageScale="1" pageWidth="827" pageHeight="1169" math="0" shadow="0">
            <root>
                <mxCell id="0"/>
                <mxCell id="1" parent="0"/>
                <mxCell id="2" value="&lt;p style=&quot;box-sizing: border-box; margin: 0px; font-weight: 400; color: rgb(44, 45, 48); font-family: roboto, &amp;quot;san francisco&amp;quot;, &amp;quot;helvetica neue&amp;quot;, helvetica, arial; font-size: 15px; font-style: normal; letter-spacing: normal; text-indent: 0px; text-transform: none; word-spacing: 0px; background-color: rgb(255, 255, 255);&quot;&gt;&lt;strong style=&quot;box-sizing: border-box ; font-weight: 700&quot;&gt;Задача 10:&lt;/strong&gt;&lt;span&gt;&amp;nbsp;&lt;/span&gt;Напишите программу, которая принимает на вход трёхзначное число и на выходе показывает&amp;nbsp;&lt;strong style=&quot;box-sizing: border-box ; font-weight: 700&quot;&gt;вторую&lt;/strong&gt;&lt;span&gt;&amp;nbsp;&lt;/span&gt;цифру этого числа.&lt;/p&gt;&lt;p style=&quot;box-sizing: border-box; margin: 0px; font-weight: 400; color: rgb(44, 45, 48); font-family: roboto, &amp;quot;san francisco&amp;quot;, &amp;quot;helvetica neue&amp;quot;, helvetica, arial; font-size: 15px; font-style: normal; letter-spacing: normal; text-indent: 0px; text-transform: none; word-spacing: 0px; background-color: rgb(255, 255, 255);&quot;&gt;456 -&amp;gt; 5&lt;br style=&quot;box-sizing: border-box&quot;&gt;782 -&amp;gt; 8&lt;br style=&quot;box-sizing: border-box&quot;&gt;918 -&amp;gt; 1&lt;/p&gt;" style="text;whiteSpace=wrap;html=1;" vertex="1" parent="1">
                    <mxGeometry x="190" y="10" width="550" height="90" as="geometry"/>
                </mxCell>
                <mxCell id="4" style="edgeStyle=none;html=1;exitX=0.5;exitY=1;exitDx=0;exitDy=0;" edge="1" parent="1" source="3">
                    <mxGeometry relative="1" as="geometry">
                        <mxPoint x="465" y="240" as="targetPoint"/>
                    </mxGeometry>
                </mxCell>
                <mxCell id="3" value="&lt;font style=&quot;font-size: 18px&quot;&gt;Start&lt;/font&gt;" style="ellipse;whiteSpace=wrap;html=1;" vertex="1" parent="1">
                    <mxGeometry x="405" y="120" width="120" height="80" as="geometry"/>
                </mxCell>
                <mxCell id="8" style="edgeStyle=none;html=1;exitX=0.5;exitY=1;exitDx=0;exitDy=0;entryX=0.5;entryY=0;entryDx=0;entryDy=0;" edge="1" parent="1" source="5" target="6">
                    <mxGeometry relative="1" as="geometry"/>
                </mxCell>
                <mxCell id="5" value="&lt;font size=&quot;3&quot;&gt;N&lt;/font&gt;" style="shape=parallelogram;perimeter=parallelogramPerimeter;whiteSpace=wrap;html=1;fixedSize=1;" vertex="1" parent="1">
                    <mxGeometry x="405" y="240" width="120" height="60" as="geometry"/>
                </mxCell>
                <mxCell id="9" style="edgeStyle=none;html=1;exitX=0.5;exitY=1;exitDx=0;exitDy=0;entryX=0.5;entryY=0;entryDx=0;entryDy=0;" edge="1" parent="1" source="6" target="7">
                    <mxGeometry relative="1" as="geometry"/>
                </mxCell>
                <mxCell id="6" value="&lt;font style=&quot;font-size: 18px&quot;&gt;N1 = N / 10&lt;/font&gt;" style="rounded=0;whiteSpace=wrap;html=1;" vertex="1" parent="1">
                    <mxGeometry x="405" y="340" width="120" height="60" as="geometry"/>
                </mxCell>
                <mxCell id="11" style="edgeStyle=none;html=1;exitX=0.5;exitY=1;exitDx=0;exitDy=0;entryX=0.5;entryY=0;entryDx=0;entryDy=0;" edge="1" parent="1" source="7" target="10">
                    <mxGeometry relative="1" as="geometry"/>
                </mxCell>
                <mxCell id="7" value="&lt;font style=&quot;font-size: 18px&quot;&gt;REM = N1 % 10&amp;nbsp;&lt;/font&gt;" style="rounded=0;whiteSpace=wrap;html=1;" vertex="1" parent="1">
                    <mxGeometry x="370" y="440" width="190" height="60" as="geometry"/>
                </mxCell>
                <mxCell id="12" style="edgeStyle=none;html=1;fontSize=18;exitX=0.508;exitY=0.881;exitDx=0;exitDy=0;exitPerimeter=0;" edge="1" parent="1" source="10">
                    <mxGeometry relative="1" as="geometry">
                        <mxPoint x="465" y="660" as="targetPoint"/>
                        <Array as="points">
                            <mxPoint x="465" y="630"/>
                        </Array>
                    </mxGeometry>
                </mxCell>
                <mxCell id="10" value="&lt;font style=&quot;font-size: 18px&quot;&gt;REM&lt;/font&gt;" style="shape=document;whiteSpace=wrap;html=1;boundedLbl=1;" vertex="1" parent="1">
                    <mxGeometry x="405" y="544.5" width="120" height="80" as="geometry"/>
                </mxCell>
                <mxCell id="13" value="End" style="ellipse;whiteSpace=wrap;html=1;fontSize=18;" vertex="1" parent="1">
                    <mxGeometry x="405" y="660" width="120" height="80" as="geometry"/>
                </mxCell>
            </root>
        </mxGraphModel>
    </diagram>
</mxfile>